<svg width="32" height="32" viewBox="0 0 32 32" fill="none" xmlns="http://www.w3.org/2000/svg">
<path d="M5.67497 22.1251C4.18608 19.6131 3.66528 16.644 4.21035 13.7753C4.75543 10.9065 6.32888 8.33537 8.63532 6.5445C10.9418 4.75364 13.8226 3.86623 16.7369 4.04888C19.6513 4.23152 22.3988 5.47165 24.4636 7.53646C26.5284 9.60127 27.7685 12.3488 27.9512 15.2631C28.1338 18.1775 27.2464 21.0583 25.4556 23.3647C23.6647 25.6712 21.0935 27.2446 18.2248 27.7897C15.356 28.3348 12.387 27.814 9.87497 26.3251L5.72497 27.5001C5.55494 27.5498 5.37467 27.5529 5.20304 27.509C5.03142 27.4651 4.87476 27.3758 4.7495 27.2506C4.62423 27.1253 4.53497 26.9686 4.49107 26.797C4.44717 26.6254 4.45024 26.4451 4.49997 26.2751L5.67497 22.1251Z" fill="#0198DB"/>
<path d="M16.25 16C16.25 16.1381 16.1381 16.25 16 16.25C15.8619 16.25 15.75 16.1381 15.75 16C15.75 15.8619 15.8619 15.75 16 15.75C16.1381 15.75 16.25 15.8619 16.25 16Z" fill="#F8F8F8" stroke="#F8F8F8" stroke-width="2"/>
<path d="M22.25 16C22.25 16.1381 22.1381 16.25 22 16.25C21.8619 16.25 21.75 16.1381 21.75 16C21.75 15.8619 21.8619 15.75 22 15.75C22.1381 15.75 22.25 15.8619 22.25 16Z" fill="#F8F8F8" stroke="#F8F8F8" stroke-width="2"/>
<path d="M10.25 16C10.25 16.1381 10.1381 16.25 10 16.25C9.86193 16.25 9.75 16.1381 9.75 16C9.75 15.8619 9.86193 15.75 10 15.75C10.1381 15.75 10.25 15.8619 10.25 16Z" fill="#F8F8F8" stroke="#F8F8F8" stroke-width="2"/>
</svg>
