<svg width="13" height="14" viewBox="0 0 13 14" fill="none" xmlns="http://www.w3.org/2000/svg">
<path d="M3.5625 6.59546C3.5625 6.67834 3.52958 6.75782 3.47097 6.81643C3.41237 6.87504 3.33288 6.90796 3.25 6.90796C3.16712 6.90796 3.08763 6.87503 3.02903 6.81643C2.97042 6.75782 2.9375 6.67834 2.9375 6.59546C2.9375 6.51258 2.97042 6.43309 3.02903 6.37449C3.08763 6.31588 3.16712 6.28296 3.25 6.28296C3.33288 6.28296 3.41237 6.31588 3.47097 6.37449C3.52958 6.43309 3.5625 6.51258 3.5625 6.59546ZM6.8125 6.59546C6.8125 6.67834 6.77958 6.75782 6.72097 6.81643C6.66236 6.87504 6.58288 6.90796 6.5 6.90796C6.41712 6.90796 6.33763 6.87504 6.27903 6.81643C6.22042 6.75782 6.1875 6.67834 6.1875 6.59546C6.1875 6.51258 6.22042 6.43309 6.27903 6.37449C6.33763 6.31588 6.41712 6.28296 6.5 6.28296C6.58288 6.28296 6.66236 6.31588 6.72097 6.37449C6.77958 6.43309 6.8125 6.51258 6.8125 6.59546ZM9.97097 6.81643C9.91236 6.87504 9.83288 6.90796 9.75 6.90796C9.66712 6.90796 9.58764 6.87504 9.52903 6.81643C9.47042 6.75782 9.4375 6.67834 9.4375 6.59546C9.4375 6.51258 9.47042 6.43309 9.52903 6.37449C9.58764 6.31588 9.66712 6.28296 9.75 6.28296C9.83288 6.28296 9.91236 6.31588 9.97097 6.37449C10.0296 6.43309 10.0625 6.51258 10.0625 6.59546C10.0625 6.67834 10.0296 6.75782 9.97097 6.81643Z" fill="white" stroke="white"/>
<path d="M6.50036 11.9705C6.50049 11.9705 6.50061 11.9705 6.50073 11.9705L6.50046 11.783L6.50036 11.9705Z" fill="#818181" stroke="white"/>
</svg>
