<svg width="20" height="18" viewBox="0 0 20 18" fill="none" xmlns="http://www.w3.org/2000/svg">
<path d="M10 17.25L8.67087 16.0583C7.12782 14.668 5.85212 13.4687 4.84379 12.4604C3.83546 11.4521 3.03337 10.5467 2.43754 9.7443C1.84171 8.94253 1.42554 8.20553 1.18904 7.5333C0.95193 6.86108 0.833374 6.17358 0.833374 5.4708C0.833374 4.03469 1.31462 2.83539 2.27712 1.87289C3.23962 0.910388 4.43893 0.429138 5.87504 0.429138C6.66949 0.429138 7.42573 0.597194 8.14379 0.933305C8.86185 1.26942 9.4806 1.74303 10 2.35414C10.5195 1.74303 11.1382 1.26942 11.8563 0.933305C12.5743 0.597194 13.3306 0.429138 14.125 0.429138C15.5612 0.429138 16.7605 0.910388 17.723 1.87289C18.6855 2.83539 19.1667 4.03469 19.1667 5.4708C19.1667 6.17358 19.0485 6.86108 18.812 7.5333C18.5748 8.20553 18.1584 8.94253 17.5625 9.7443C16.9667 10.5467 16.1646 11.4521 15.1563 12.4604C14.148 13.4687 12.8723 14.668 11.3292 16.0583L10 17.25ZM10 14.775C11.4667 13.4611 12.6737 12.3342 13.6209 11.3943C14.5681 10.455 15.3167 9.63797 15.8667 8.94314C16.4167 8.24769 16.7986 7.62864 17.0125 7.08597C17.2264 6.54392 17.3334 6.00553 17.3334 5.4708C17.3334 4.55414 17.0278 3.79025 16.4167 3.17914C15.8056 2.56803 15.0417 2.26247 14.125 2.26247C13.407 2.26247 12.7424 2.46475 12.1313 2.8693C11.5202 3.27447 11.1 3.79025 10.8709 4.41664H9.12921C8.90004 3.79025 8.4799 3.27447 7.86879 2.8693C7.25768 2.46475 6.5931 2.26247 5.87504 2.26247C4.95837 2.26247 4.19449 2.56803 3.58337 3.17914C2.97226 3.79025 2.66671 4.55414 2.66671 5.4708C2.66671 6.00553 2.77365 6.54392 2.98754 7.08597C3.20143 7.62864 3.58337 8.24769 4.13337 8.94314C4.68337 9.63797 5.43198 10.455 6.37921 11.3943C7.32643 12.3342 8.53337 13.4611 10 14.775Z" fill="#F8721A"/>
<path d="M10 17.25L8.67087 16.0583C7.12782 14.668 5.85212 13.4687 4.84379 12.4604C3.83546 11.4521 3.03337 10.5467 2.43754 9.7443C1.84171 8.94253 1.42554 8.20553 1.18904 7.5333C0.95193 6.86108 0.833374 6.17358 0.833374 5.4708C0.833374 4.03469 1.31462 2.83539 2.27712 1.87289C3.23962 0.910388 4.43893 0.429138 5.87504 0.429138C6.66949 0.429138 7.42573 0.597194 8.14379 0.933305C8.86185 1.26942 9.4806 1.74303 10 2.35414C10.5195 1.74303 11.1382 1.26942 11.8563 0.933305C12.5743 0.597194 13.3306 0.429138 14.125 0.429138C15.5612 0.429138 16.7605 0.910388 17.723 1.87289C18.6855 2.83539 19.1667 4.03469 19.1667 5.4708C19.1667 6.17358 19.0485 6.86108 18.812 7.5333C18.5748 8.20553 18.1584 8.94253 17.5625 9.7443C16.9667 10.5467 16.1646 11.4521 15.1563 12.4604C14.148 13.4687 12.8723 14.668 11.3292 16.0583L10 17.25ZM10 14.775C11.4667 13.4611 12.6737 12.3342 13.6209 11.3943C14.5681 10.455 15.3167 9.63797 15.8667 8.94314C16.4167 8.24769 16.7986 7.62864 17.0125 7.08597C17.2264 6.54392 17.3334 6.00553 17.3334 5.4708C17.3334 4.55414 17.0278 3.79025 16.4167 3.17914C15.8056 2.56803 15.0417 2.26247 14.125 2.26247C13.407 2.26247 12.7424 2.46475 12.1313 2.8693C11.5202 3.27447 11.1 3.79025 10.8709 4.41664H9.12921C8.90004 3.79025 8.4799 3.27447 7.86879 2.8693C7.25768 2.46475 6.5931 2.26247 5.87504 2.26247C4.95837 2.26247 4.19449 2.56803 3.58337 3.17914C2.97226 3.79025 2.66671 4.55414 2.66671 5.4708C2.66671 6.00553 2.77365 6.54392 2.98754 7.08597C3.20143 7.62864 3.58337 8.24769 4.13337 8.94314C4.68337 9.63797 5.43198 10.455 6.37921 11.3943C7.32643 12.3342 8.53337 13.4611 10 14.775Z" stroke="#F8721A"/>
</svg>
