<svg width="27" height="27" viewBox="0 0 27 27" fill="none" xmlns="http://www.w3.org/2000/svg">
<path d="M10.1145 23.625H16.8645" stroke="black" stroke-width="1.5" stroke-linecap="round" stroke-linejoin="round"/>
<path d="M5.9273 11.8124C5.9273 10.8179 6.12317 9.83323 6.50374 8.91447C6.8843 7.99572 7.4421 7.16091 8.14528 6.45773C8.84847 5.75454 9.68327 5.19674 10.602 4.81618C11.5208 4.43562 12.5055 4.23975 13.5 4.23975C14.4944 4.23975 15.4791 4.43562 16.3979 4.81618C17.3166 5.19674 18.1514 5.75454 18.8546 6.45773C19.5578 7.16091 20.1156 7.99572 20.4962 8.91447C20.8767 9.83323 21.0726 10.8179 21.0726 11.8124V11.8124C21.0726 15.5882 21.8636 17.7819 22.5597 18.9843C22.6337 19.1123 22.6726 19.2576 22.6728 19.4054C22.6729 19.5533 22.6342 19.6986 22.5605 19.8267C22.4868 19.9549 22.3807 20.0615 22.2528 20.1357C22.125 20.21 21.9798 20.2494 21.832 20.2499H5.16793C5.02007 20.2494 4.87495 20.21 4.74709 20.1357C4.61924 20.0615 4.51315 19.9549 4.43945 19.8267C4.36574 19.6986 4.32702 19.5533 4.32715 19.4054C4.32728 19.2576 4.36626 19.1123 4.44019 18.9843C5.13629 17.7819 5.9273 15.5882 5.9273 11.8124Z" stroke="black" stroke-width="1.5" stroke-linecap="round" stroke-linejoin="round"/>
<path d="M19.343 2.53125C21.0609 3.61569 22.4475 5.15181 23.3508 6.97148" stroke="black" stroke-width="1.5" stroke-linecap="round" stroke-linejoin="round"/>
<path d="M3.64917 6.97148C4.55254 5.15181 5.93905 3.61569 7.65698 2.53125" stroke="black" stroke-width="1.5" stroke-linecap="round" stroke-linejoin="round"/>
</svg>
