<svg width="19" height="19" viewBox="0 0 19 19" fill="none" xmlns="http://www.w3.org/2000/svg">
<path d="M18.3504 0.649603C18.1865 0.484506 17.9814 0.36626 17.7564 0.307122C17.5314 0.247985 17.2946 0.250109 17.0707 0.313275L1.78829 4.61992C1.53278 4.69448 1.30577 4.84451 1.13701 5.05033C0.968246 5.25615 0.865609 5.50816 0.842551 5.77332C0.819494 6.03848 0.877092 6.30442 1.00779 6.53628C1.1385 6.76814 1.33621 6.9551 1.575 7.07265L8.60508 10.3949L11.9273 17.425C12.034 17.648 12.2014 17.8364 12.4104 17.9685C12.6194 18.1006 12.8614 18.1709 13.1086 18.1715H13.2234C13.4906 18.1509 13.745 18.0485 13.952 17.8783C14.1589 17.708 14.3084 17.4781 14.3801 17.2199L18.6867 1.92929C18.7499 1.70538 18.752 1.46864 18.6929 1.24363C18.6337 1.01862 18.5155 0.813524 18.3504 0.649603ZM13.1168 16.859L9.88477 10.0422L13.2727 6.65429C13.3385 6.5946 13.3916 6.52214 13.4286 6.44132C13.4657 6.3605 13.4859 6.273 13.4881 6.18413C13.4903 6.09526 13.4744 6.00687 13.4414 5.92432C13.4084 5.84178 13.3589 5.7668 13.2961 5.70394C13.2332 5.64108 13.1582 5.59164 13.0757 5.55864C12.9931 5.52563 12.9047 5.50974 12.8159 5.51193C12.727 5.51411 12.6395 5.53434 12.5587 5.57137C12.4779 5.60839 12.4054 5.66146 12.3457 5.72734L8.95782 9.11523L2.14102 5.8832L17.4234 1.57656L13.1168 16.859Z" fill="#F8721A"/>
</svg>
