<svg width="23" height="23" viewBox="0 0 23 23" fill="none" xmlns="http://www.w3.org/2000/svg">
<path d="M8.625 19.4064H4.3125C4.12188 19.4064 3.93906 19.3307 3.80427 19.1959C3.66948 19.0611 3.59375 18.8783 3.59375 18.6877V14.6716C3.59343 14.5783 3.61151 14.4858 3.64697 14.3995C3.68243 14.3132 3.73456 14.2347 3.80039 14.1685L14.5816 3.38727C14.6485 3.31936 14.7282 3.26543 14.8162 3.22862C14.9041 3.19181 14.9984 3.17285 15.0938 3.17285C15.1891 3.17285 15.2834 3.19181 15.3713 3.22862C15.4593 3.26543 15.539 3.31936 15.6059 3.38727L19.6129 7.39431C19.6808 7.46119 19.7347 7.5409 19.7715 7.62882C19.8084 7.71674 19.8273 7.8111 19.8273 7.90642C19.8273 8.00173 19.8084 8.09609 19.7715 8.18401C19.7347 8.27193 19.6808 8.35165 19.6129 8.41852L8.625 19.4064Z" stroke="#F8721A" stroke-linecap="round" stroke-linejoin="round"/>
<path d="M12.2188 5.75L17.25 10.7812" stroke="#F8721A" stroke-linecap="round" stroke-linejoin="round"/>
<path d="M19.4062 19.4062H8.625L3.63867 14.4199" stroke="#F8721A" stroke-linecap="round" stroke-linejoin="round"/>
<path d="M14.7344 8.26562L6.10938 16.8906" stroke="#F8721A" stroke-linecap="round" stroke-linejoin="round"/>
</svg>
