<svg width="19" height="15" viewBox="0 0 19 15" fill="none" xmlns="http://www.w3.org/2000/svg">
<path d="M13.4583 9.87502H15.0416V11.4584H13.4583V9.87502ZM13.4583 6.70835H15.0416V8.29169H13.4583V6.70835ZM13.4583 3.54169H15.0416V5.12502H13.4583V3.54169ZM10.8774 3.54169L11.8749 4.20669V3.54169H10.8774Z" fill="#F8721A"/>
<path d="M7.91663 0.375V1.57042L9.49996 2.62333V1.95833H16.625V13.0417H13.4583V14.625H18.2083V0.375H7.91663Z" fill="#F8721A"/>
<path d="M6.46788 2.51251L11.875 6.1146V14.625H0.791626V6.29668L6.46788 2.51251ZM7.91663 13.0417H10.2916V6.83501L6.46788 4.4046L2.37496 7.00918V13.0417H4.74996V8.29168H7.91663V13.0417Z" fill="#F8721A"/>
</svg>
