<svg width="14" height="13" viewBox="0 0 14 13" fill="none" xmlns="http://www.w3.org/2000/svg">
<path d="M7.00002 2.71429L7.81945 4.30129L9.57145 4.55587L8.28573 5.71429L8.7143 7.42858L7.00002 6.46429L5.28573 7.42858L5.7143 5.71429L4.42859 4.55587L6.22859 4.30129L7.00002 2.71429Z" fill="white"/>
<path d="M7.84358 11.9686C7.78864 12.0648 7.66605 12.098 7.5701 12.0427L7.1727 11.8138C7.07723 11.7588 7.04422 11.6369 7.09888 11.5412L8.6567 8.81506C8.69231 8.75274 8.75858 8.71429 8.83035 8.71429H11.2857C11.3983 8.71446 11.5099 8.6924 11.6139 8.64938C11.718 8.60637 11.8126 8.54324 11.8922 8.46361C11.9718 8.38399 12.0349 8.28943 12.078 8.18536C12.121 8.08129 12.143 7.96975 12.1429 7.85714V2.71429C12.143 2.60168 12.121 2.49014 12.078 2.38607C12.0349 2.282 11.9718 2.18744 11.8922 2.10782C11.8126 2.02819 11.718 1.96506 11.6139 1.92204C11.5099 1.87903 11.3983 1.85697 11.2857 1.85714H2.71429C2.60168 1.85697 2.49014 1.87903 2.38607 1.92204C2.282 1.96506 2.18744 2.02819 2.10782 2.10782C2.02819 2.18744 1.96506 2.282 1.92204 2.38607C1.87903 2.49014 1.85697 2.60168 1.85714 2.71429V7.85714C1.85697 7.96975 1.87903 8.08129 1.92204 8.18536C1.96506 8.28943 2.02819 8.38399 2.10782 8.46361C2.18744 8.54324 2.282 8.60637 2.38607 8.64938C2.49014 8.6924 2.60168 8.71446 2.71429 8.71429H6.37143C6.48189 8.71429 6.57143 8.80383 6.57143 8.91429V9.37143C6.57143 9.48189 6.48189 9.57143 6.37143 9.57143H2.71429C2.25963 9.57143 1.82359 9.39082 1.5021 9.06933C1.18061 8.74783 1 8.3118 1 7.85714V2.71429C0.999944 2.48915 1.04425 2.2662 1.13038 2.05819C1.21651 1.85018 1.34278 1.66117 1.50198 1.50198C1.66117 1.34278 1.85018 1.21651 2.05819 1.13038C2.2662 1.04425 2.48915 0.999944 2.71429 1H11.2857C11.5109 0.999944 11.7338 1.04425 11.9418 1.13038C12.1498 1.21651 12.3388 1.34278 12.498 1.50198C12.6572 1.66117 12.7835 1.85018 12.8696 2.05819C12.9558 2.2662 13.0001 2.48915 13 2.71429V7.85714C13 8.3118 12.8194 8.74783 12.4979 9.06933C12.1764 9.39082 11.7404 9.57143 11.2857 9.57143H9.32963C9.25786 9.57143 9.1916 9.60988 9.15599 9.67219L7.84358 11.9686Z" fill="white" stroke="white" stroke-width="0.3"/>
</svg>
