<svg width="31" height="14" viewBox="0 0 31 14" fill="none" xmlns="http://www.w3.org/2000/svg">
<path d="M31 5.33474L25.248 4.87789L23 0L20.752 4.88526L15 5.33474L19.368 8.82L18.056 14L23 11.2516L27.944 14L26.64 8.82L31 5.33474ZM23 9.87368L19.992 11.5463L20.792 8.39263L18.136 6.27053L21.64 5.99053L23 3.02105L24.368 5.99789L27.872 6.27789L25.216 8.4L26.016 11.5537L23 9.87368Z" fill="#F8721A"/>
<path d="M7 11.2516L11.326 14L10.178 8.82L14 5.33474L8.967 4.88526L7 0L5.033 4.88526L0 5.33474L3.822 8.82L2.674 14L7 11.2516Z" fill="#F8721A"/>
</svg>
