<svg width="24" height="25" viewBox="0 0 24 25" fill="none" xmlns="http://www.w3.org/2000/svg">
<path d="M15 22.6497V16.6497C15 16.3845 14.8946 16.1301 14.7071 15.9426C14.5196 15.755 14.2652 15.6497 14 15.6497H10C9.7348 15.6497 9.4804 15.755 9.2929 15.9426C9.1054 16.1301 9 16.3845 9 16.6497V22.6497C9 22.9149 8.8946 23.1693 8.7071 23.3568C8.5196 23.5443 8.2652 23.6497 8 23.6497H2C1.73478 23.6497 1.48043 23.5443 1.29289 23.3568C1.10536 23.1693 1 22.9149 1 22.6497V11.0872C1.00224 10.9488 1.03215 10.8123 1.08796 10.6856C1.14378 10.5589 1.22437 10.4447 1.325 10.3497L11.325 1.26218C11.5093 1.09353 11.7501 1 12 1C12.2499 1 12.4907 1.09353 12.675 1.26218L22.675 10.3497C22.7756 10.4447 22.8562 10.5589 22.912 10.6856C22.9679 10.8123 22.9978 10.9488 23 11.0872V22.6497C23 22.9149 22.8946 23.1693 22.7071 23.3568C22.5196 23.5443 22.2652 23.6497 22 23.6497H16C15.7348 23.6497 15.4804 23.5443 15.2929 23.3568C15.1054 23.1693 15 22.9149 15 22.6497Z" fill="white" stroke="white" stroke-width="2" stroke-linecap="round" stroke-linejoin="round"/>
</svg>
