<svg width="31" height="31" viewBox="0 0 31 31" fill="none" xmlns="http://www.w3.org/2000/svg">
<path d="M15.5 27.125C21.9203 27.125 27.125 21.9203 27.125 15.5C27.125 9.07969 21.9203 3.875 15.5 3.875C9.07969 3.875 3.875 9.07969 3.875 15.5C3.875 21.9203 9.07969 27.125 15.5 27.125Z" stroke="#0198DB" stroke-linecap="round" stroke-linejoin="round"/>
<path d="M15.5 19.375C18.1751 19.375 20.3438 17.2064 20.3438 14.5312C20.3438 11.8561 18.1751 9.6875 15.5 9.6875C12.8249 9.6875 10.6562 11.8561 10.6562 14.5312C10.6562 17.2064 12.8249 19.375 15.5 19.375Z" stroke="#0198DB" stroke-linecap="round" stroke-linejoin="round"/>
<path d="M7.72578 24.1461C8.45466 22.7104 9.56684 21.5046 10.9391 20.6624C12.3113 19.8201 13.8899 19.3743 15.5 19.3743C17.1101 19.3743 18.6887 19.8201 20.0609 20.6624C21.4332 21.5046 22.5453 22.7104 23.2742 24.1461" stroke="#0198DB" stroke-linecap="round" stroke-linejoin="round"/>
</svg>
