<svg width="32" height="32" viewBox="0 0 32 32" fill="none" xmlns="http://www.w3.org/2000/svg">
<path d="M5.675 22.125C4.18611 19.613 3.66531 16.6439 4.21039 13.7752C4.75546 10.9064 6.32891 8.33528 8.63535 6.54441C10.9418 4.75355 13.8226 3.86614 16.737 4.04878C19.6513 4.23143 22.3988 5.47156 24.4636 7.53637C26.5284 9.60118 27.7686 12.3487 27.9512 15.263C28.1339 18.1774 27.2465 21.0582 25.4556 23.3647C23.6647 25.6711 21.0936 27.2446 18.2248 27.7896C15.3561 28.3347 12.387 27.8139 9.875 26.325L5.725 27.5C5.55497 27.5497 5.3747 27.5528 5.20307 27.5089C5.03145 27.465 4.87479 27.3757 4.74953 27.2505C4.62426 27.1252 4.535 26.9686 4.4911 26.7969C4.4472 26.6253 4.45027 26.445 4.5 26.275L5.675 22.125Z" fill="#0198DB" stroke="#0198DB" stroke-width="2" stroke-linecap="round" stroke-linejoin="round"/>
<path d="M16.25 16C16.25 16.1381 16.1381 16.25 16 16.25C15.8619 16.25 15.75 16.1381 15.75 16C15.75 15.8619 15.8619 15.75 16 15.75C16.1381 15.75 16.25 15.8619 16.25 16Z" fill="#D9D9D9" stroke="#D9D9D9" stroke-width="2"/>
<path d="M22.25 16C22.25 16.1381 22.1381 16.25 22 16.25C21.8619 16.25 21.75 16.1381 21.75 16C21.75 15.8619 21.8619 15.75 22 15.75C22.1381 15.75 22.25 15.8619 22.25 16Z" fill="#D9D9D9" stroke="#D9D9D9" stroke-width="2"/>
<path d="M10.25 16C10.25 16.1381 10.1381 16.25 10 16.25C9.86193 16.25 9.75 16.1381 9.75 16C9.75 15.8619 9.86193 15.75 10 15.75C10.1381 15.75 10.25 15.8619 10.25 16Z" fill="#D9D9D9" stroke="#D9D9D9" stroke-width="2"/>
</svg>
