<svg width="32" height="32" viewBox="0 0 32 32" fill="none" xmlns="http://www.w3.org/2000/svg">
<path d="M5.675 22.125C4.18611 19.613 3.66531 16.6439 4.21039 13.7752C4.75546 10.9064 6.32891 8.33528 8.63535 6.54441C10.9418 4.75355 13.8226 3.86614 16.737 4.04878C19.6513 4.23143 22.3988 5.47156 24.4636 7.53637C26.5284 9.60118 27.7686 12.3487 27.9512 15.263C28.1339 18.1774 27.2465 21.0582 25.4556 23.3647C23.6647 25.6711 21.0936 27.2446 18.2248 27.7896C15.3561 28.3347 12.387 27.8139 9.875 26.325V26.325L5.725 27.5C5.55497 27.5497 5.3747 27.5528 5.20307 27.5089C5.03145 27.465 4.87479 27.3757 4.74953 27.2505C4.62426 27.1252 4.535 26.9686 4.4911 26.7969C4.4472 26.6253 4.45027 26.445 4.5 26.275L5.675 22.125Z" stroke="#0198DB" stroke-linecap="round" stroke-linejoin="round"/>
<path d="M17 16C17 16.5523 16.5523 17 16 17C15.4477 17 15 16.5523 15 16C15 15.4477 15.4477 15 16 15C16.5523 15 17 15.4477 17 16Z" fill="#0198DB" stroke="#0198DB" stroke-width="0.5"/>
<path d="M23 16C23 16.5523 22.5523 17 22 17C21.4477 17 21 16.5523 21 16C21 15.4477 21.4477 15 22 15C22.5523 15 23 15.4477 23 16Z" fill="#0198DB" stroke="#0198DB" stroke-width="0.5"/>
<path d="M11 16C11 16.5523 10.5523 17 10 17C9.44772 17 9 16.5523 9 16C9 15.4477 9.44772 15 10 15C10.5523 15 11 15.4477 11 16Z" fill="#0198DB" stroke="#0198DB" stroke-width="0.5"/>
</svg>
