<svg width="31" height="31" viewBox="0 0 31 31" fill="none" xmlns="http://www.w3.org/2000/svg">
<path d="M21 24H9L10.5 25L12.5 25.5L14.5 26H17L19.5 25L21 24Z" fill="white" stroke="white"/>
<path d="M15.5 27.125C21.9203 27.125 27.125 21.9203 27.125 15.5C27.125 9.07969 21.9203 3.875 15.5 3.875C9.07969 3.875 3.875 9.07969 3.875 15.5C3.875 21.9203 9.07969 27.125 15.5 27.125Z" stroke="white" stroke-width="2" stroke-linecap="round" stroke-linejoin="round"/>
<path d="M15.5 19.375C18.1751 19.375 20.3438 17.2064 20.3438 14.5312C20.3438 11.8561 18.1751 9.6875 15.5 9.6875C12.8249 9.6875 10.6562 11.8561 10.6562 14.5312C10.6562 17.2064 12.8249 19.375 15.5 19.375Z" fill="white" stroke="white" stroke-width="2" stroke-linecap="round" stroke-linejoin="round"/>
<path d="M7.72577 24.1461C8.45465 22.7104 9.56683 21.5046 10.9391 20.6624C12.3113 19.8201 13.8899 19.3743 15.5 19.3743C17.1101 19.3743 18.6887 19.8201 20.0609 20.6624C21.4332 21.5046 22.7711 22.5643 23.5 24" fill="white"/>
<path d="M7.72577 24.1461C8.45465 22.7104 9.56683 21.5046 10.9391 20.6624C12.3113 19.8201 13.8899 19.3743 15.5 19.3743C17.1101 19.3743 18.6887 19.8201 20.0609 20.6624C21.4332 21.5046 22.7711 22.5643 23.5 24L21 25.5C21 25.5 18.5 27 16 27C13.5 27 10.5 26 10.5 26L7.72577 24.1461Z" stroke="white" stroke-width="2" stroke-linecap="round" stroke-linejoin="round"/>
</svg>
