<svg width="14" height="14" viewBox="0 0 14 14" fill="none" xmlns="http://www.w3.org/2000/svg">
<path d="M1.94602 2.51428H4.46031V7.9619H1.94602C1.83489 7.9619 1.7283 7.91775 1.64971 7.83916C1.57113 7.76058 1.52698 7.65399 1.52698 7.54285V2.93333C1.52698 2.82219 1.57113 2.71561 1.64971 2.63702C1.7283 2.55843 1.83489 2.51428 1.94602 2.51428V2.51428Z" stroke="white" stroke-linecap="round" stroke-linejoin="round"/>
<path d="M4.46021 7.9619L6.55544 12.1524C7 12.1524 7.42634 11.9758 7.74069 11.6614C8.05503 11.3471 8.23163 10.9207 8.23163 10.4762V9.21904H11.474C11.5928 9.21933 11.7104 9.19419 11.8187 9.14531C11.927 9.09642 12.0236 9.02492 12.102 8.93561C12.1804 8.8463 12.2388 8.74125 12.2732 8.62751C12.3076 8.51377 12.3173 8.39398 12.3016 8.27618L11.6731 3.24762C11.6476 3.04575 11.5496 2.86003 11.3973 2.72509C11.2451 2.59016 11.0489 2.51523 10.8454 2.51428H4.46021" stroke="white" stroke-linecap="round" stroke-linejoin="round"/>
</svg>
