<svg width="14" height="14" viewBox="0 0 14 14" fill="none" xmlns="http://www.w3.org/2000/svg">
<path d="M1.67625 5.44763H4.19053V10.8952H1.67625C1.56511 10.8952 1.45852 10.8511 1.37994 10.7725C1.30135 10.6939 1.2572 10.5873 1.2572 10.4762V5.86668C1.2572 5.75554 1.30135 5.64895 1.37994 5.57037C1.45852 5.49178 1.56511 5.44763 1.67625 5.44763V5.44763Z" stroke="white" stroke-linecap="round" stroke-linejoin="round"/>
<path d="M4.19043 5.44761L6.28567 1.25714C6.73022 1.25714 7.15656 1.43374 7.47091 1.74809C7.78526 2.06243 7.96186 2.48878 7.96186 2.93333V4.19047H11.2042C11.3231 4.19018 11.4406 4.21532 11.5489 4.26421C11.6572 4.31309 11.7538 4.38459 11.8322 4.4739C11.9106 4.56321 11.969 4.66827 12.0034 4.782C12.0379 4.89574 12.0476 5.01553 12.0319 5.13333L11.4033 10.1619C11.3779 10.3638 11.2799 10.5495 11.1276 10.6844C10.9753 10.8194 10.7791 10.8943 10.5757 10.8952H4.19043" stroke="white" stroke-linecap="round" stroke-linejoin="round"/>
</svg>
