<svg width="14" height="14" viewBox="0 0 14 14" fill="none" xmlns="http://www.w3.org/2000/svg">
<path d="M12.25 1.3125H1.75C1.26675 1.3125 0.875 1.70425 0.875 2.1875V2.625C0.875 3.10825 1.26675 3.5 1.75 3.5H12.25C12.7332 3.5 13.125 3.10825 13.125 2.625V2.1875C13.125 1.70425 12.7332 1.3125 12.25 1.3125Z" fill="white"/>
<path d="M2.03585 4.375C2.00511 4.37484 1.97468 4.38115 1.94654 4.39354C1.91841 4.40592 1.8932 4.4241 1.87256 4.44688C1.85192 4.46966 1.83631 4.49653 1.82676 4.52575C1.8172 4.55497 1.81391 4.58587 1.8171 4.61645L2.53651 11.5224C2.53637 11.5244 2.53637 11.5264 2.53651 11.5284C2.5741 11.8478 2.72767 12.1423 2.96805 12.356C3.20844 12.5697 3.51891 12.6876 3.84054 12.6875H10.1594C10.4809 12.6875 10.7913 12.5695 11.0315 12.3558C11.2718 12.1421 11.4253 11.8477 11.4629 11.5284V11.5227L12.1812 4.61645C12.1844 4.58587 12.1811 4.55497 12.1715 4.52575C12.162 4.49653 12.1464 4.46966 12.1257 4.44688C12.1051 4.4241 12.0799 4.40592 12.0518 4.39354C12.0236 4.38115 11.9932 4.37484 11.9625 4.375H2.03585ZM8.84061 9.31575C8.88221 9.35616 8.91535 9.40443 8.93812 9.45777C8.96088 9.51111 8.97282 9.56844 8.97323 9.62643C8.97364 9.68442 8.96252 9.74191 8.94051 9.79556C8.9185 9.84921 8.88605 9.89796 8.84503 9.93895C8.80402 9.97995 8.75526 10.0124 8.7016 10.0344C8.64793 10.0564 8.59044 10.0674 8.53245 10.067C8.47446 10.0666 8.41713 10.0546 8.36381 10.0318C8.31048 10.009 8.26222 9.97587 8.22183 9.93426L7.00011 8.71254L5.77811 9.93426C5.69569 10.0143 5.58506 10.0588 5.47014 10.058C5.35522 10.0572 5.24523 10.0112 5.16395 9.92991C5.08267 9.84866 5.03662 9.7387 5.03575 9.62378C5.03489 9.50885 5.07928 9.39821 5.15933 9.31575L6.38132 8.09375L5.15933 6.87176C5.07928 6.7893 5.03489 6.67865 5.03575 6.56373C5.03662 6.44881 5.08267 6.33884 5.16395 6.2576C5.24523 6.17635 5.35522 6.13035 5.47014 6.12954C5.58506 6.12872 5.69569 6.17316 5.77811 6.25325L7.00011 7.47496L8.22183 6.25325C8.30425 6.17316 8.41488 6.12872 8.5298 6.12954C8.64472 6.13035 8.75471 6.17635 8.83599 6.2576C8.91727 6.33884 8.96332 6.44881 8.96419 6.56373C8.96505 6.67865 8.92066 6.7893 8.84061 6.87176L7.61862 8.09375L8.84061 9.31575Z" fill="white"/>
</svg>
