<svg width="26" height="26" viewBox="0 0 26 26" fill="none" xmlns="http://www.w3.org/2000/svg">
<path d="M13 22.75C18.3848 22.75 22.75 18.3848 22.75 13C22.75 7.61522 18.3848 3.25 13 3.25C7.61522 3.25 3.25 7.61522 3.25 13C3.25 18.3848 7.61522 22.75 13 22.75Z" stroke="#F8721A" stroke-linecap="round" stroke-linejoin="round"/>
<path d="M13 16.25C15.2437 16.25 17.0625 14.4312 17.0625 12.1875C17.0625 9.94384 15.2437 8.125 13 8.125C10.7563 8.125 8.9375 9.94384 8.9375 12.1875C8.9375 14.4312 10.7563 16.25 13 16.25Z" stroke="#F8721A" stroke-linecap="round" stroke-linejoin="round"/>
<path d="M6.47961 20.2517C7.09093 19.0476 8.02373 18.0363 9.17462 17.3299C10.3255 16.6234 11.6495 16.2495 12.9999 16.2495C14.3503 16.2495 15.6743 16.6234 16.8252 17.3299C17.9761 18.0363 18.9089 19.0476 19.5202 20.2517" stroke="#F8721A" stroke-linecap="round" stroke-linejoin="round"/>
</svg>
