<svg width="23" height="23" viewBox="0 0 23 23" fill="none" xmlns="http://www.w3.org/2000/svg">
<path d="M11.5 9.34375V12.9375" stroke="#F8721A" stroke-linecap="round" stroke-linejoin="round"/>
<path d="M10.2602 3.59398L2.35397 17.2502C2.22802 17.4684 2.1616 17.7158 2.16138 17.9677C2.16115 18.2196 2.22713 18.4672 2.3527 18.6855C2.47827 18.9039 2.65902 19.0855 2.87684 19.212C3.09466 19.3385 3.34191 19.4056 3.59381 19.4065H19.4063C19.6582 19.4056 19.9055 19.3385 20.1233 19.212C20.3411 19.0855 20.5219 18.9039 20.6474 18.6855C20.773 18.4672 20.839 18.2196 20.8388 17.9677C20.8385 17.7158 20.7721 17.4684 20.6462 17.2502L12.7399 3.59398C12.6149 3.37554 12.4344 3.194 12.2167 3.06775C11.999 2.94149 11.7517 2.875 11.5001 2.875C11.2484 2.875 11.0012 2.94149 10.7835 3.06775C10.5657 3.194 10.3852 3.37554 10.2602 3.59398V3.59398Z" stroke="#F8721A" stroke-linecap="round" stroke-linejoin="round"/>
<path d="M11.5 17.0703C11.9962 17.0703 12.3984 16.6681 12.3984 16.1719C12.3984 15.6757 11.9962 15.2734 11.5 15.2734C11.0038 15.2734 10.6016 15.6757 10.6016 16.1719C10.6016 16.6681 11.0038 17.0703 11.5 17.0703Z" fill="#F8721A"/>
</svg>
