<svg width="32" height="32" viewBox="0 0 32 32" fill="none" xmlns="http://www.w3.org/2000/svg">
<path d="M5.67497 22.1251C4.18608 19.6131 3.66528 16.644 4.21035 13.7753C4.75543 10.9065 6.32888 8.33537 8.63532 6.5445C10.9418 4.75364 13.8226 3.86623 16.7369 4.04888C19.6513 4.23152 22.3988 5.47165 24.4636 7.53646C26.5284 9.60127 27.7685 12.3488 27.9512 15.2631C28.1338 18.1775 27.2464 21.0583 25.4556 23.3647C23.6647 25.6712 21.0935 27.2446 18.2248 27.7897C15.356 28.3348 12.387 27.814 9.87497 26.3251V26.3251L5.72497 27.5001C5.55494 27.5498 5.37467 27.5529 5.20304 27.509C5.03142 27.4651 4.87476 27.3758 4.7495 27.2506C4.62423 27.1253 4.53497 26.9686 4.49107 26.797C4.44717 26.6254 4.45024 26.4451 4.49997 26.2751L5.67497 22.1251Z" stroke="#0198DB" stroke-linecap="round" stroke-linejoin="round"/>
<path d="M17 16C17 16.5523 16.5523 17 16 17C15.4477 17 15 16.5523 15 16C15 15.4477 15.4477 15 16 15C16.5523 15 17 15.4477 17 16Z" fill="#0198DB" stroke="#0198DB" stroke-width="0.5"/>
<path d="M23 16C23 16.5523 22.5523 17 22 17C21.4477 17 21 16.5523 21 16C21 15.4477 21.4477 15 22 15C22.5523 15 23 15.4477 23 16Z" fill="#0198DB" stroke="#0198DB" stroke-width="0.5"/>
<path d="M11 16C11 16.5523 10.5523 17 10 17C9.44772 17 9 16.5523 9 16C9 15.4477 9.44772 15 10 15C10.5523 15 11 15.4477 11 16Z" fill="#0198DB" stroke="#0198DB" stroke-width="0.5"/>
</svg>
