<svg width="27" height="27" viewBox="0 0 27 27" fill="none" xmlns="http://www.w3.org/2000/svg">
<path d="M9.82969 12.9516C9.46393 12.0543 9.27761 11.094 9.28125 10.125C9.28125 8.6231 9.72661 7.15493 10.561 5.90614C11.3954 4.65736 12.5814 3.68405 13.969 3.10929C15.3566 2.53454 16.8834 2.38416 18.3565 2.67717C19.8295 2.97017 21.1826 3.69341 22.2446 4.75541C23.3066 5.81742 24.0298 7.17049 24.3228 8.64354C24.6158 10.1166 24.4655 11.6434 23.8907 13.031C23.316 14.4186 22.3426 15.6046 21.0939 16.439C19.8451 17.2734 18.3769 17.7188 16.875 17.7188C15.906 17.7224 14.9457 17.5361 14.0484 17.1703V17.1703L12.6562 18.5625H10.125V21.0938H7.59375V23.625H3.375V19.4063L9.82969 12.9516Z" stroke="#0198DB" stroke-linecap="round" stroke-linejoin="round"/>
<path d="M18.9844 9.07031C19.5669 9.07031 20.0391 8.59811 20.0391 8.01562C20.0391 7.43314 19.5669 6.96094 18.9844 6.96094C18.4019 6.96094 17.9297 7.43314 17.9297 8.01562C17.9297 8.59811 18.4019 9.07031 18.9844 9.07031Z" fill="#0198DB"/>
</svg>
